<svg width="142" height="24" viewBox="0 0 142 24" fill="none" xmlns="http://www.w3.org/2000/svg">
    <path d="M15.418 5.82422C15.4102 6.49609 15.3438 7.09766 15.2188 7.62891C15.1016 8.16016 14.9297 8.64062 14.7031 9.07031C14.4844 9.49219 14.2148 9.875 13.8945 10.2188C13.582 10.5547 13.2227 10.8711 12.8164 11.168C12.0352 11.7305 11.1797 12.1562 10.25 12.4453C9.32031 12.7266 8.38672 12.8672 7.44922 12.8672C7.29297 12.8672 7.13672 12.8633 6.98047 12.8555C6.83203 12.8477 6.67969 12.8359 6.52344 12.8203L6.13672 17.0977L5.9375 17.4609C5.92188 17.4922 5.78906 17.5547 5.53906 17.6484C5.28906 17.7422 4.97656 17.8516 4.60156 17.9766L3.86328 18.2227C3.62891 18.3086 3.42188 18.3867 3.24219 18.457C3.0625 18.5273 2.89453 18.5898 2.73828 18.6445C2.58203 18.6992 2.42969 18.7383 2.28125 18.7617C2.13281 18.793 1.97656 18.8086 1.8125 18.8086C1.70312 18.8086 1.61719 18.7812 1.55469 18.7266C1.49219 18.6719 1.46094 18.5664 1.46094 18.4102L1.58984 16.4062C1.61328 16.0078 1.64062 15.6094 1.67188 15.2109C1.71094 14.8047 1.74609 14.3438 1.77734 13.8281L2 11.0273C2.04688 10.457 2.08984 9.88672 2.12891 9.31641C2.16797 8.74609 2.20703 8.20312 2.24609 7.6875C2.28516 7.17188 2.32031 6.69141 2.35156 6.24609C2.38281 5.79297 2.41016 5.39844 2.43359 5.0625C2.01172 5.15625 1.67188 5.22656 1.41406 5.27344C1.16406 5.3125 0.972656 5.33203 0.839844 5.33203C0.675781 5.33203 0.59375 5.26172 0.59375 5.12109C0.703125 4.73828 0.804688 4.36328 0.898438 3.99609C0.984375 3.68359 1.07031 3.36328 1.15625 3.03516C1.25 2.69922 1.32812 2.41797 1.39062 2.19141C1.42969 2.05078 1.47266 1.94531 1.51953 1.875C1.57422 1.79688 1.64062 1.73828 1.71875 1.69922C1.80469 1.65234 1.91016 1.61328 2.03516 1.58203C2.16797 1.54297 2.32812 1.49219 2.51562 1.42969C2.66406 1.38281 2.87109 1.33203 3.13672 1.27734C3.41016 1.21484 3.71875 1.15625 4.0625 1.10156C4.41406 1.03906 4.79297 0.980469 5.19922 0.925781C5.60547 0.871094 6.01562 0.824219 6.42969 0.785156C6.85156 0.738281 7.26562 0.703125 7.67188 0.679688C8.07812 0.648438 8.46094 0.632812 8.82031 0.632812C9.71094 0.632812 10.5547 0.714844 11.3516 0.878906C12.1484 1.04297 12.8477 1.32422 13.4492 1.72266C14.0508 2.11328 14.5273 2.64453 14.8789 3.31641C15.2383 3.98047 15.418 4.81641 15.418 5.82422ZM6.85156 9.33984C6.85156 9.42578 6.86719 9.50391 6.89844 9.57422C6.92969 9.63672 7.01562 9.66797 7.15625 9.66797C7.375 9.66797 7.63281 9.62109 7.92969 9.52734C8.23438 9.42578 8.53516 9.27734 8.83203 9.08203C9.13672 8.88672 9.41797 8.64453 9.67578 8.35547C9.93359 8.06641 10.1289 7.72656 10.2617 7.33594C10.3164 7.17969 10.3594 6.98047 10.3906 6.73828C10.4297 6.49609 10.4492 6.21094 10.4492 5.88281C10.4492 5.33594 10.2578 4.93359 9.875 4.67578C9.5 4.41797 9.00781 4.28906 8.39844 4.28906C8.29688 4.28906 8.17969 4.29688 8.04688 4.3125C7.92188 4.32031 7.80078 4.33984 7.68359 4.37109C7.57422 4.40234 7.48047 4.44141 7.40234 4.48828C7.32422 4.52734 7.28125 4.58203 7.27344 4.65234L7.25 4.91016C7.24219 5.01172 7.22656 5.17969 7.20312 5.41406C7.17969 5.64062 7.15234 5.90234 7.12109 6.19922C7.09766 6.49609 7.07031 6.80859 7.03906 7.13672C7.01562 7.46484 6.98828 7.77734 6.95703 8.07422C6.93359 8.37109 6.91016 8.63281 6.88672 8.85938C6.87109 9.08594 6.85938 9.24609 6.85156 9.33984ZM25.5781 8.46094C25.4141 8.44531 25.2305 8.42969 25.0273 8.41406C24.8242 8.39062 24.6094 8.37891 24.3828 8.37891C24.0391 8.37891 23.6875 8.41016 23.3281 8.47266C22.9766 8.52734 22.6484 8.64062 22.3438 8.8125C22.0391 8.98438 21.7773 9.22266 21.5586 9.52734C21.3398 9.82422 21.1992 10.2109 21.1367 10.6875C21.082 11.2656 21.0352 11.7422 20.9961 12.1172C20.9648 12.4844 20.9414 12.7891 20.9258 13.0312C20.9102 13.2656 20.8945 13.457 20.8789 13.6055C20.8711 13.7461 20.8633 13.8789 20.8555 14.0039C20.8555 14.0352 20.8477 14.1211 20.832 14.2617C20.8242 14.4023 20.8086 14.5664 20.7852 14.7539C20.7617 14.9414 20.7383 15.1445 20.7148 15.3633C20.6992 15.582 20.6797 15.7852 20.6562 15.9727C20.6328 16.1602 20.6133 16.3242 20.5977 16.4648C20.5898 16.6055 20.5859 16.6914 20.5859 16.7227C20.5859 16.7852 20.5859 16.8398 20.5859 16.8867C20.5938 16.9258 20.5977 16.9648 20.5977 17.0039C20.5977 17.0664 20.5664 17.1211 20.5039 17.168C20.4492 17.207 20.3203 17.2539 20.1172 17.3086L17.0117 18.4219C16.9258 18.4531 16.8125 18.4922 16.6719 18.5391C16.5312 18.5859 16.3945 18.6094 16.2617 18.6094C16.1523 18.6094 16.0547 18.582 15.9688 18.5273C15.8906 18.4727 15.8516 18.3789 15.8516 18.2461L16.8594 6.63281C16.8828 6.375 16.9102 6.19922 16.9414 6.10547C16.9805 6.00391 17.0703 5.9375 17.2109 5.90625C17.9219 5.76562 18.6562 5.625 19.4141 5.48438C20.1719 5.33594 20.9062 5.14844 21.6172 4.92188C21.6797 4.92188 21.7148 4.93359 21.7227 4.95703C21.7383 4.97266 21.7461 5 21.7461 5.03906C21.7461 5.05469 21.7422 5.07812 21.7344 5.10938C21.7344 5.14062 21.7227 5.21094 21.6992 5.32031C21.6836 5.42969 21.6562 5.59766 21.6172 5.82422C21.5859 6.04297 21.5391 6.35156 21.4766 6.75C21.8359 6.46875 22.2305 6.21094 22.6602 5.97656C23.0977 5.74219 23.5352 5.54297 23.9727 5.37891C24.4102 5.20703 24.832 5.07422 25.2383 4.98047C25.6445 4.87891 26 4.82812 26.3047 4.82812L25.5781 8.46094ZM32.7266 18.6094C31.625 18.6094 30.6562 18.4297 29.8203 18.0703C28.9922 17.7109 28.2969 17.2344 27.7344 16.6406C27.1719 16.0391 26.75 15.3516 26.4688 14.5781C26.1875 13.7969 26.0469 12.9883 26.0469 12.1523C26.0469 11.3164 26.1836 10.5234 26.457 9.77344C26.7305 9.01562 27.1133 8.33984 27.6055 7.74609C28.0977 7.14453 28.6875 6.64453 29.375 6.24609C30.0625 5.83984 30.8203 5.56641 31.6484 5.42578C31.7734 5.41797 31.8359 5.39062 31.8359 5.34375C31.8359 5.25781 31.8242 5.17969 31.8008 5.10938C31.7852 5.03125 31.7773 4.96484 31.7773 4.91016C31.7773 4.82422 31.793 4.76562 31.8242 4.73438C31.8555 4.70312 31.8906 4.6875 31.9297 4.6875C33.4219 4.6875 34.6914 4.85938 35.7383 5.20312C36.7852 5.53906 37.6367 6 38.293 6.58594C38.9492 7.17188 39.4258 7.86328 39.7227 8.66016C40.0195 9.45703 40.168 10.3125 40.168 11.2266C40.168 12.3906 39.9727 13.4297 39.582 14.3438C39.1914 15.2578 38.6562 16.0312 37.9766 16.6641C37.3047 17.2969 36.5156 17.7773 35.6094 18.1055C34.7109 18.4414 33.75 18.6094 32.7266 18.6094ZM30.5586 12.0234C30.5586 12.4453 30.6016 12.8633 30.6875 13.2773C30.7812 13.6914 30.9297 14.0664 31.1328 14.4023C31.3438 14.7383 31.6172 15.0117 31.9531 15.2227C32.2891 15.4258 32.707 15.5273 33.207 15.5273C33.5664 15.5117 33.8789 15.4336 34.1445 15.293C34.418 15.1445 34.6523 14.957 34.8477 14.7305C35.043 14.4961 35.2031 14.2344 35.3281 13.9453C35.4609 13.6562 35.5625 13.3594 35.6328 13.0547C35.7109 12.7422 35.7656 12.4375 35.7969 12.1406C35.8281 11.8438 35.8438 11.5742 35.8438 11.332C35.8438 10.9258 35.7812 10.5273 35.6562 10.1367C35.5391 9.74609 35.3633 9.40234 35.1289 9.10547C34.8945 8.80859 34.6016 8.57031 34.25 8.39062C33.9062 8.20312 33.5078 8.10938 33.0547 8.10938C32.5859 8.10938 32.1914 8.25 31.8711 8.53125C31.5508 8.80469 31.293 9.14453 31.0977 9.55078C30.9102 9.95703 30.7734 10.3867 30.6875 10.8398C30.6016 11.2852 30.5586 11.6797 30.5586 12.0234ZM47.7734 18.6797C47.7656 18.6719 47.707 18.5664 47.5977 18.3633C47.4961 18.168 47.3594 17.9141 47.1875 17.6016C47.0234 17.2812 46.8359 16.9258 46.625 16.5352C46.4219 16.1445 46.2148 15.75 46.0039 15.3516C45.707 15.75 45.4141 16.1445 45.125 16.5352C44.8359 16.9258 44.5781 17.2812 44.3516 17.6016C44.125 17.9141 43.9375 18.168 43.7891 18.3633C43.6406 18.5664 43.5625 18.6719 43.5547 18.6797C43.5 18.7578 43.4258 18.7969 43.332 18.7969C43.2852 18.7969 43.2539 18.793 43.2383 18.7852C43.0039 18.668 42.75 18.5625 42.4766 18.4688C42.2031 18.3828 41.9219 18.3008 41.6328 18.2227C41.3516 18.1523 41.0664 18.082 40.7773 18.0117C40.4883 17.9492 40.2109 17.8828 39.9453 17.8125C39.8672 17.7969 39.8281 17.7578 39.8281 17.6953C39.8281 17.6406 39.8594 17.5703 39.9219 17.4844C39.9844 17.3984 40.082 17.2656 40.2148 17.0859L44.0938 11.7773C43.625 10.9102 43.1602 10.0586 42.6992 9.22266C42.2461 8.38672 41.7773 7.52344 41.293 6.63281C41.207 6.47656 41.1406 6.35547 41.0938 6.26953C41.0469 6.18359 41.0234 6.10938 41.0234 6.04688C41.0234 5.97656 41.0742 5.92969 41.1758 5.90625C41.7617 5.77344 42.3594 5.63672 42.9688 5.49609C43.5859 5.34766 44.1562 5.16016 44.6797 4.93359C44.7031 4.92578 44.7383 4.92188 44.7852 4.92188C44.8867 4.92188 44.9531 4.96094 44.9844 5.03906L46.7422 8.22656L49.1914 5.03906C49.2461 4.96094 49.3203 4.92188 49.4141 4.92188C49.4609 4.92188 49.4922 4.92578 49.5078 4.93359C49.9844 5.16016 50.5156 5.34766 51.1016 5.49609C51.6953 5.63672 52.2656 5.77344 52.8125 5.90625C52.8906 5.92969 52.9297 5.96484 52.9297 6.01172C52.9297 6.08203 52.8984 6.16016 52.8359 6.24609C52.7734 6.32422 52.6758 6.45312 52.543 6.63281C51.8633 7.52344 51.2031 8.38672 50.5625 9.22266C49.9219 10.0508 49.2852 10.9023 48.6523 11.7773L51.4648 17.0859C51.543 17.2344 51.6055 17.3516 51.6523 17.4375C51.6992 17.5234 51.7227 17.5977 51.7227 17.6602C51.7227 17.7383 51.6758 17.7891 51.582 17.8125C50.9961 17.9453 50.3945 18.082 49.7773 18.2227C49.168 18.3711 48.6016 18.5586 48.0781 18.7852C48.0547 18.793 48.0195 18.7969 47.9727 18.7969C47.8867 18.7969 47.8203 18.7578 47.7734 18.6797ZM58.5078 23.3438C58.4922 23.375 58.4727 23.3984 58.4492 23.4141C58.4336 23.4375 58.4023 23.4492 58.3555 23.4492C58.3086 23.4492 58.2734 23.4453 58.25 23.4375C57.9688 23.3359 57.7031 23.25 57.4531 23.1797C57.2031 23.1094 56.9531 23.043 56.7031 22.9805C56.4609 22.9258 56.2109 22.8711 55.9531 22.8164C55.6953 22.7695 55.4219 22.7148 55.1328 22.6523C55.0547 22.6367 54.9922 22.6094 54.9453 22.5703C54.9062 22.5391 54.8867 22.4805 54.8867 22.3945C54.8867 22.3711 54.8984 22.3125 54.9219 22.2188C54.9531 22.1328 55.0234 21.9492 55.1328 21.668C55.2422 21.3945 55.4102 20.9922 55.6367 20.4609C55.8633 19.9375 56.1758 19.2305 56.5742 18.3398C56.457 17.9492 56.3242 17.4805 56.1758 16.9336C56.0273 16.3867 55.8672 15.7891 55.6953 15.1406C55.5312 14.4922 55.3594 13.8086 55.1797 13.0898C55 12.3633 54.8164 11.6328 54.6289 10.8984C54.4492 10.1562 54.2656 9.42578 54.0781 8.70703C53.8984 7.98047 53.7227 7.28906 53.5508 6.63281C53.4961 6.50781 53.4648 6.40625 53.457 6.32812C53.4492 6.24219 53.4453 6.17188 53.4453 6.11719C53.4453 6.00781 53.5078 5.9375 53.6328 5.90625C54.2422 5.77344 54.875 5.63672 55.5312 5.49609C56.1875 5.34766 56.8086 5.16016 57.3945 4.93359C57.418 4.92578 57.4531 4.92188 57.5 4.92188C57.6016 4.92188 57.6562 4.96094 57.6641 5.03906L59.0938 12.9141C59.125 12.8203 59.1836 12.6523 59.2695 12.4102C59.3633 12.1602 59.4688 11.8633 59.5859 11.5195C59.7109 11.1758 59.8477 10.7969 59.9961 10.3828C60.1445 9.96875 60.2969 9.54688 60.4531 9.11719C60.6094 8.6875 60.7617 8.26172 60.9102 7.83984C61.0664 7.41016 61.2109 7.01172 61.3438 6.64453C61.4766 6.27734 61.5898 5.95312 61.6836 5.67188C61.7852 5.39062 61.8633 5.17969 61.918 5.03906C61.9492 4.96094 62.0078 4.92188 62.0938 4.92188C62.1172 4.92188 62.1328 4.92578 62.1406 4.93359C62.1484 4.93359 62.1641 4.93359 62.1875 4.93359C62.7734 5.16016 63.375 5.34766 63.9922 5.49609C64.6094 5.63672 65.2227 5.77344 65.832 5.90625C65.9805 5.9375 66.0547 6.02344 66.0547 6.16406C66.0547 6.26562 66.0078 6.42188 65.9141 6.63281L61.0859 17.543L58.5078 23.3438ZM74.6562 18.375C74.6953 17.8047 74.7344 17.2539 74.7734 16.7227C74.8125 16.1914 74.8477 15.6758 74.8789 15.1758L75.3008 9.64453C75.3477 9.22266 75.3867 8.83984 75.418 8.49609C75.4492 8.14453 75.4727 7.80469 75.4883 7.47656C75.5117 7.14062 75.5312 6.80469 75.5469 6.46875C75.5703 6.125 75.5938 5.74609 75.6172 5.33203C75.3594 5.32422 75.0859 5.32031 74.7969 5.32031C74.5156 5.32031 74.2188 5.32031 73.9062 5.32031H71.6445C71.5586 5.32031 71.5039 5.28906 71.4805 5.22656C71.4648 5.15625 71.457 5.09375 71.457 5.03906V4.95703L72.7461 1.57031L72.7344 1.52344C72.7344 1.48438 72.7578 1.45312 72.8047 1.42969C72.8594 1.39844 72.9766 1.375 73.1562 1.35938C74.2344 1.29688 75.2773 1.23828 76.2852 1.18359C77.3008 1.12109 78.3008 1.06641 79.2852 1.01953C80.2773 0.972656 81.2656 0.925781 82.25 0.878906C83.2422 0.832031 84.2617 0.789062 85.3086 0.75C85.4023 0.75 85.5 0.761719 85.6016 0.785156C85.7109 0.808594 85.7656 0.894531 85.7656 1.04297C85.7656 1.05859 85.7617 1.07422 85.7539 1.08984C85.7461 1.10547 85.7422 1.12109 85.7422 1.13672C85.6172 1.45703 85.5 1.76172 85.3906 2.05078C85.2891 2.33984 85.1875 2.625 85.0859 2.90625C84.9844 3.1875 84.8789 3.47266 84.7695 3.76172C84.668 4.05078 84.5547 4.35547 84.4297 4.67578C84.4219 4.68359 84.4062 4.72266 84.3828 4.79297C84.3594 4.85547 84.3242 4.92969 84.2773 5.01562C84.2305 5.09375 84.168 5.16797 84.0898 5.23828C84.0117 5.30859 83.9141 5.34766 83.7969 5.35547C83.7578 5.34766 83.7188 5.34375 83.6797 5.34375C83.6406 5.34375 83.5977 5.34375 83.5508 5.34375H80.4219C80.3828 5.74219 80.3438 6.16406 80.3047 6.60938C80.2734 7.05469 80.2344 7.48828 80.1875 7.91016L79.332 17.0625C79.3242 17.1328 79.3086 17.2031 79.2852 17.2734C79.2695 17.3438 79.2188 17.3945 79.1328 17.4258L75.8164 18.6211C75.7305 18.6523 75.6172 18.6914 75.4766 18.7383C75.3359 18.7852 75.1992 18.8086 75.0664 18.8086C74.957 18.8086 74.8594 18.7812 74.7734 18.7266C74.6953 18.6719 74.6562 18.5703 74.6562 18.4219V18.375ZM90.3594 4.92188C91.1016 4.92188 91.7734 5.0625 92.375 5.34375C92.9844 5.61719 93.5039 5.97656 93.9336 6.42188C94.3711 6.85938 94.707 7.35156 94.9414 7.89844C95.1758 8.44531 95.293 8.99219 95.293 9.53906C95.293 10.0234 95.1445 10.5117 94.8477 11.0039C94.5508 11.4883 94.1328 11.9258 93.5938 12.3164C93.0625 12.707 92.4219 13.0234 91.6719 13.2656C90.9219 13.5078 90.0977 13.6289 89.1992 13.6289C88.7305 13.6289 88.2383 13.582 87.7227 13.4883C87.7539 13.8242 87.8516 14.1133 88.0156 14.3555C88.1797 14.5977 88.3867 14.7969 88.6367 14.9531C88.8867 15.1094 89.168 15.2266 89.4805 15.3047C89.8008 15.375 90.1289 15.4102 90.4648 15.4102C90.8398 15.4102 91.1992 15.3789 91.543 15.3164C91.8945 15.2461 92.2305 15.1562 92.5508 15.0469C92.8711 14.9375 93.1797 14.8164 93.4766 14.6836C93.7734 14.5508 94.0547 14.418 94.3203 14.2852C94.3906 14.2695 94.4492 14.2578 94.4961 14.25C94.5508 14.2344 94.6016 14.2266 94.6484 14.2266C94.6484 14.2266 94.6445 14.2891 94.6367 14.4141C94.6367 14.5391 94.6367 14.7148 94.6367 14.9414C94.6367 15.168 94.6328 15.4414 94.625 15.7617C94.625 16.082 94.6211 16.4375 94.6133 16.8281C94.6367 16.8672 94.6523 16.9062 94.6602 16.9453C94.668 16.9844 94.6719 17.0156 94.6719 17.0391C94.6719 17.1328 94.5859 17.2344 94.4141 17.3438C94.2422 17.4531 94.0156 17.5664 93.7344 17.6836C93.4609 17.8008 93.1445 17.9141 92.7852 18.0234C92.4336 18.1328 92.0742 18.2305 91.707 18.3164C91.3398 18.4102 90.9844 18.4805 90.6406 18.5273C90.2969 18.582 89.9961 18.6094 89.7383 18.6094C88.8945 18.6094 88.0742 18.4609 87.2773 18.1641C86.4883 17.875 85.7852 17.457 85.168 16.9102C84.5586 16.3633 84.0703 15.6992 83.7031 14.918C83.3359 14.1367 83.1523 13.2578 83.1523 12.2812C83.1523 11.2578 83.3281 10.3008 83.6797 9.41016C84.0312 8.51172 84.5234 7.73047 85.1562 7.06641C85.7969 6.40234 86.5586 5.87891 87.4414 5.49609C88.3242 5.11328 89.2969 4.92188 90.3594 4.92188ZM90.2188 8.03906C89.8984 8.03906 89.6016 8.10938 89.3281 8.25C89.0625 8.38281 88.8164 8.57812 88.5898 8.83594C88.3711 9.08594 88.1797 9.39062 88.0156 9.75C87.8516 10.1016 87.7188 10.4922 87.6172 10.9219C88.4219 10.7812 89.0898 10.6328 89.6211 10.4766C90.1523 10.3203 90.5781 10.1641 90.8984 10.0078C91.2188 9.84375 91.4453 9.68359 91.5781 9.52734C91.7109 9.36328 91.7773 9.20703 91.7773 9.05859C91.7773 8.91797 91.7227 8.78516 91.6133 8.66016C91.5117 8.53516 91.3828 8.42578 91.2266 8.33203C91.0703 8.23828 90.8984 8.16797 90.7109 8.12109C90.5312 8.06641 90.3672 8.03906 90.2188 8.03906ZM96.8164 14.7656C96.8164 14.7578 96.8125 14.7539 96.8047 14.7539C96.8047 14.7461 96.8047 14.7383 96.8047 14.7305C96.8047 14.6289 96.8594 14.5781 96.9688 14.5781C97.0391 14.5781 97.1016 14.6055 97.1562 14.6602C97.4688 14.957 97.8242 15.1992 98.2227 15.3867C98.6289 15.5742 99.0664 15.668 99.5352 15.668C99.6602 15.668 99.8047 15.6562 99.9688 15.6328C100.133 15.6016 100.289 15.5547 100.438 15.4922C100.586 15.4297 100.707 15.3477 100.801 15.2461C100.902 15.1367 100.953 15.0039 100.953 14.8477C100.953 14.6758 100.91 14.5195 100.824 14.3789C100.738 14.2305 100.625 14.1094 100.484 14.0156C100.406 13.9609 100.27 13.8672 100.074 13.7344C99.8789 13.5938 99.668 13.4453 99.4414 13.2891C99.2227 13.1328 99.0117 12.9844 98.8086 12.8438C98.6133 12.7031 98.4766 12.6016 98.3984 12.5391C98.0469 12.2734 97.7656 12.0039 97.5547 11.7305C97.3516 11.457 97.1953 11.1758 97.0859 10.8867C96.9766 10.5898 96.9062 10.2812 96.875 9.96094C96.8438 9.64062 96.8281 9.30078 96.8281 8.94141C96.8281 8.39453 96.9727 7.87891 97.2617 7.39453C97.5508 6.91016 97.9297 6.48438 98.3984 6.11719C98.875 5.75 99.4141 5.46094 100.016 5.25C100.617 5.03125 101.23 4.92188 101.855 4.92188C102.371 4.92188 102.879 5 103.379 5.15625C103.879 5.3125 104.344 5.57812 104.773 5.95312C104.812 6.44531 104.84 6.92969 104.855 7.40625C104.871 7.88281 104.895 8.38281 104.926 8.90625C104.926 9.00781 104.902 9.07812 104.855 9.11719C104.809 9.14844 104.754 9.16406 104.691 9.16406C104.637 9.16406 104.59 9.14453 104.551 9.10547C104.371 8.93359 104.188 8.76562 104 8.60156C103.812 8.42969 103.613 8.28125 103.402 8.15625C103.199 8.02344 102.98 7.91797 102.746 7.83984C102.512 7.75391 102.262 7.71094 101.996 7.71094C101.832 7.71094 101.668 7.72656 101.504 7.75781C101.34 7.78125 101.191 7.83203 101.059 7.91016C100.926 7.98047 100.816 8.07812 100.73 8.20312C100.652 8.32812 100.613 8.48828 100.613 8.68359C100.613 8.91016 100.641 9.10547 100.695 9.26953C100.75 9.43359 100.879 9.59375 101.082 9.75L103.262 11.2266C103.66 11.5 103.98 11.7695 104.223 12.0352C104.473 12.293 104.668 12.5508 104.809 12.8086C104.949 13.0664 105.043 13.3242 105.09 13.582C105.145 13.832 105.172 14.082 105.172 14.332C105.172 15.0352 105.008 15.6562 104.68 16.1953C104.359 16.7266 103.941 17.1719 103.426 17.5312C102.91 17.8828 102.324 18.1484 101.668 18.3281C101.02 18.5156 100.367 18.6094 99.7109 18.6094C99.2109 18.6094 98.7266 18.5547 98.2578 18.4453C97.7969 18.3438 97.3672 18.1836 96.9688 17.9648L96.8164 14.7656ZM113.035 8.96484C112.926 9.78516 112.82 10.6055 112.719 11.4258C112.625 12.2383 112.566 13 112.543 13.7109C112.543 14.0156 112.566 14.2695 112.613 14.4727C112.66 14.6758 112.727 14.8359 112.812 14.9531C112.906 15.0703 113.016 15.1562 113.141 15.2109C113.266 15.2578 113.406 15.2812 113.562 15.2812C113.812 15.2812 114.086 15.2461 114.383 15.1758C114.68 15.0977 114.977 15 115.273 14.8828C115.367 14.8438 115.445 14.8164 115.508 14.8008C115.578 14.7773 115.637 14.7656 115.684 14.7656C115.762 14.7656 115.812 14.8008 115.836 14.8711C115.867 14.9414 115.895 15.0664 115.918 15.2461C115.949 15.418 115.992 15.6523 116.047 15.9492C116.102 16.2461 116.191 16.6211 116.316 17.0742C116.324 17.1133 116.328 17.1484 116.328 17.1797C116.336 17.2031 116.34 17.2266 116.34 17.25C116.34 17.3594 116.297 17.4375 116.211 17.4844C116.133 17.5312 116 17.5859 115.812 17.6484C115.492 17.7578 115.152 17.8711 114.793 17.9883C114.441 18.0977 114.09 18.1992 113.738 18.293C113.395 18.3867 113.062 18.4609 112.742 18.5156C112.422 18.5781 112.141 18.6094 111.898 18.6094C110.594 18.6094 109.641 18.2852 109.039 17.6367C108.445 16.9883 108.148 16 108.148 14.6719C108.148 14.4453 108.156 14.2148 108.172 13.9805C108.188 13.7383 108.207 13.4883 108.23 13.2305C108.309 12.4492 108.375 11.7109 108.43 11.0156C108.492 10.3125 108.555 9.64062 108.617 9H107.387C106.965 9 106.66 8.98438 106.473 8.95312C106.285 8.91406 106.191 8.83984 106.191 8.73047C106.191 8.69922 106.23 8.61719 106.309 8.48438C106.387 8.34375 106.484 8.17969 106.602 7.99219C106.727 7.79688 106.859 7.58984 107 7.37109C107.141 7.15234 107.273 6.94922 107.398 6.76172C107.531 6.56641 107.645 6.39844 107.738 6.25781C107.832 6.11719 107.891 6.03125 107.914 6H108.746C108.816 5.40625 108.871 4.91016 108.91 4.51172C108.957 4.10547 108.992 3.76953 109.016 3.50391C109.047 3.23828 109.074 3.03516 109.098 2.89453C109.121 2.74609 109.145 2.63672 109.168 2.56641C109.199 2.49609 109.234 2.45312 109.273 2.4375C109.32 2.41406 109.379 2.39453 109.449 2.37891C109.801 2.30859 110.141 2.24609 110.469 2.19141C110.797 2.12891 111.125 2.06641 111.453 2.00391C111.781 1.94141 112.113 1.87109 112.449 1.79297C112.793 1.70703 113.148 1.60938 113.516 1.5C113.539 1.5 113.555 1.5 113.562 1.5C113.57 1.49219 113.586 1.48828 113.609 1.48828C113.703 1.48828 113.75 1.51953 113.75 1.58203V1.60547C113.711 2.03516 113.648 2.63281 113.562 3.39844C113.484 4.16406 113.395 5.03125 113.293 6H116.434C116.496 6 116.555 6.02344 116.609 6.07031C116.672 6.10938 116.703 6.17969 116.703 6.28125C116.703 6.32031 116.656 6.46094 116.562 6.70312C116.469 6.94531 116.336 7.26172 116.164 7.65234L115.742 8.60156C115.688 8.71875 115.629 8.80469 115.566 8.85938C115.512 8.91406 115.395 8.94922 115.215 8.96484H113.035ZM124.461 4.92188C125.203 4.92188 125.875 5.0625 126.477 5.34375C127.086 5.61719 127.605 5.97656 128.035 6.42188C128.473 6.85938 128.809 7.35156 129.043 7.89844C129.277 8.44531 129.395 8.99219 129.395 9.53906C129.395 10.0234 129.246 10.5117 128.949 11.0039C128.652 11.4883 128.234 11.9258 127.695 12.3164C127.164 12.707 126.523 13.0234 125.773 13.2656C125.023 13.5078 124.199 13.6289 123.301 13.6289C122.832 13.6289 122.34 13.582 121.824 13.4883C121.855 13.8242 121.953 14.1133 122.117 14.3555C122.281 14.5977 122.488 14.7969 122.738 14.9531C122.988 15.1094 123.27 15.2266 123.582 15.3047C123.902 15.375 124.23 15.4102 124.566 15.4102C124.941 15.4102 125.301 15.3789 125.645 15.3164C125.996 15.2461 126.332 15.1562 126.652 15.0469C126.973 14.9375 127.281 14.8164 127.578 14.6836C127.875 14.5508 128.156 14.418 128.422 14.2852C128.492 14.2695 128.551 14.2578 128.598 14.25C128.652 14.2344 128.703 14.2266 128.75 14.2266C128.75 14.2266 128.746 14.2891 128.738 14.4141C128.738 14.5391 128.738 14.7148 128.738 14.9414C128.738 15.168 128.734 15.4414 128.727 15.7617C128.727 16.082 128.723 16.4375 128.715 16.8281C128.738 16.8672 128.754 16.9062 128.762 16.9453C128.77 16.9844 128.773 17.0156 128.773 17.0391C128.773 17.1328 128.688 17.2344 128.516 17.3438C128.344 17.4531 128.117 17.5664 127.836 17.6836C127.562 17.8008 127.246 17.9141 126.887 18.0234C126.535 18.1328 126.176 18.2305 125.809 18.3164C125.441 18.4102 125.086 18.4805 124.742 18.5273C124.398 18.582 124.098 18.6094 123.84 18.6094C122.996 18.6094 122.176 18.4609 121.379 18.1641C120.59 17.875 119.887 17.457 119.27 16.9102C118.66 16.3633 118.172 15.6992 117.805 14.918C117.438 14.1367 117.254 13.2578 117.254 12.2812C117.254 11.2578 117.43 10.3008 117.781 9.41016C118.133 8.51172 118.625 7.73047 119.258 7.06641C119.898 6.40234 120.66 5.87891 121.543 5.49609C122.426 5.11328 123.398 4.92188 124.461 4.92188ZM124.32 8.03906C124 8.03906 123.703 8.10938 123.43 8.25C123.164 8.38281 122.918 8.57812 122.691 8.83594C122.473 9.08594 122.281 9.39062 122.117 9.75C121.953 10.1016 121.82 10.4922 121.719 10.9219C122.523 10.7812 123.191 10.6328 123.723 10.4766C124.254 10.3203 124.68 10.1641 125 10.0078C125.32 9.84375 125.547 9.68359 125.68 9.52734C125.812 9.36328 125.879 9.20703 125.879 9.05859C125.879 8.91797 125.824 8.78516 125.715 8.66016C125.613 8.53516 125.484 8.42578 125.328 8.33203C125.172 8.23828 125 8.16797 124.812 8.12109C124.633 8.06641 124.469 8.03906 124.32 8.03906ZM140.445 8.46094C140.281 8.44531 140.098 8.42969 139.895 8.41406C139.691 8.39062 139.477 8.37891 139.25 8.37891C138.906 8.37891 138.555 8.41016 138.195 8.47266C137.844 8.52734 137.516 8.64062 137.211 8.8125C136.906 8.98438 136.645 9.22266 136.426 9.52734C136.207 9.82422 136.066 10.2109 136.004 10.6875C135.949 11.2656 135.902 11.7422 135.863 12.1172C135.832 12.4844 135.809 12.7891 135.793 13.0312C135.777 13.2656 135.762 13.457 135.746 13.6055C135.738 13.7461 135.73 13.8789 135.723 14.0039C135.723 14.0352 135.715 14.1211 135.699 14.2617C135.691 14.4023 135.676 14.5664 135.652 14.7539C135.629 14.9414 135.605 15.1445 135.582 15.3633C135.566 15.582 135.547 15.7852 135.523 15.9727C135.5 16.1602 135.48 16.3242 135.465 16.4648C135.457 16.6055 135.453 16.6914 135.453 16.7227C135.453 16.7852 135.453 16.8398 135.453 16.8867C135.461 16.9258 135.465 16.9648 135.465 17.0039C135.465 17.0664 135.434 17.1211 135.371 17.168C135.316 17.207 135.188 17.2539 134.984 17.3086L131.879 18.4219C131.793 18.4531 131.68 18.4922 131.539 18.5391C131.398 18.5859 131.262 18.6094 131.129 18.6094C131.02 18.6094 130.922 18.582 130.836 18.5273C130.758 18.4727 130.719 18.3789 130.719 18.2461L131.727 6.63281C131.75 6.375 131.777 6.19922 131.809 6.10547C131.848 6.00391 131.938 5.9375 132.078 5.90625C132.789 5.76562 133.523 5.625 134.281 5.48438C135.039 5.33594 135.773 5.14844 136.484 4.92188C136.547 4.92188 136.582 4.93359 136.59 4.95703C136.605 4.97266 136.613 5 136.613 5.03906C136.613 5.05469 136.609 5.07812 136.602 5.10938C136.602 5.14062 136.59 5.21094 136.566 5.32031C136.551 5.42969 136.523 5.59766 136.484 5.82422C136.453 6.04297 136.406 6.35156 136.344 6.75C136.703 6.46875 137.098 6.21094 137.527 5.97656C137.965 5.74219 138.402 5.54297 138.84 5.37891C139.277 5.20703 139.699 5.07422 140.105 4.98047C140.512 4.87891 140.867 4.82812 141.172 4.82812L140.445 8.46094Z"
          fill="white"/>
</svg>